<!--?xml version="1.0" standalone="no"?-->
              <svg id="sw-js-blob-svg" viewBox="0 0 100 100" xmlns="http://www.w3.org/2000/svg" version="1.1">
                    <defs> 
                        <linearGradient id="sw-gradient" x1="0" x2="1" y1="1" y2="0">
                            <stop id="stop1" stop-color="rgba(248, 117, 55, 1)" offset="0%"></stop>
                            <stop id="stop2" stop-color="rgba(251, 168, 31, 1)" offset="100%"></stop>
                        </linearGradient>
                    </defs>
                <path fill="none" d="M21,-28.9C28.7,-23.4,37.3,-19.2,38.3,-13.1C39.3,-7.1,32.7,0.7,28.3,7.7C24,14.8,22,21.2,17.7,24.8C13.3,28.4,6.7,29.2,-1.4,31.2C-9.5,33.1,-19.1,36.3,-26.8,33.8C-34.5,31.3,-40.3,23.1,-40.3,15C-40.3,6.9,-34.3,-1.1,-30,-8.3C-25.7,-15.5,-23,-21.7,-18.3,-28.1C-13.5,-34.5,-6.8,-41.2,0,-41.1C6.7,-41.1,13.4,-34.4,21,-28.9Z" width="100%" height="100%" transform="translate(50 50)" stroke-width="1" style="transition: 0.3s;" stroke="url(#sw-gradient)"></path>
              </svg>