<!--?xml version="1.0" standalone="no"?-->
              <svg id="sw-js-blob-svg" viewBox="0 0 100 100" xmlns="http://www.w3.org/2000/svg" version="1.1">
                    <defs> 
                        <linearGradient id="sw-gradient" x1="0" x2="1" y1="1" y2="0">
                            <stop id="stop1" stop-color="rgba(248, 117, 55, 1)" offset="0%"></stop>
                            <stop id="stop2" stop-color="rgba(251, 168, 31, 1)" offset="100%"></stop>
                        </linearGradient>
                    </defs>
                <path fill="none" d="M23.4,-32.4C27.7,-29.2,26.7,-18.7,28.5,-10C30.3,-1.2,35,5.8,34.9,12.9C34.7,19.9,29.6,26.8,23,31.2C16.4,35.5,8.2,37.3,-0.6,38C-9.3,38.8,-18.6,38.7,-24.5,34.1C-30.4,29.5,-32.8,20.5,-33,12.5C-33.2,4.5,-31.1,-2.5,-29.2,-9.9C-27.3,-17.2,-25.6,-25.1,-20.8,-28.1C-15.9,-31.1,-8,-29.3,0.8,-30.5C9.6,-31.6,19.2,-35.6,23.4,-32.4Z" width="100%" height="100%" transform="translate(50 50)" stroke-width="1" style="transition: 0.3s;" stroke="url(#sw-gradient)"></path>
              </svg>