<!--?xml version="1.0" standalone="no"?-->
              <svg id="sw-js-blob-svg" viewBox="0 0 100 100" xmlns="http://www.w3.org/2000/svg" version="1.1">
                    <defs> 
                        <linearGradient id="sw-gradient" x1="0" x2="1" y1="1" y2="0">
                            <stop id="stop1" stop-color="rgba(248, 117, 55, 1)" offset="0%"></stop>
                            <stop id="stop2" stop-color="rgba(251, 168, 31, 1)" offset="100%"></stop>
                        </linearGradient>
                    </defs>
                <path fill="none" d="M21.6,-27.2C28.7,-24.5,35.6,-19.2,37.7,-12.4C39.7,-5.5,36.9,2.8,33.9,10.7C30.9,18.7,27.8,26.3,22.1,29.5C16.5,32.6,8.2,31.2,-0.3,31.7C-8.9,32.1,-17.8,34.4,-24.6,31.6C-31.4,28.9,-36.2,21.1,-38.3,12.9C-40.4,4.6,-39.7,-4,-36.9,-11.7C-34,-19.5,-29,-26.2,-22.5,-29.1C-16,-32,-8,-31,-0.4,-30.5C7.2,-30,14.5,-29.9,21.6,-27.2Z" width="100%" height="100%" transform="translate(50 50)" stroke-width="1" style="transition: 0.3s;" stroke="url(#sw-gradient)"></path>
              </svg>